<svg height="24" viewBox="0 0 24 24" width="24" xmlns="http://www.w3.org/2000/svg"><path d="m3.07149281 1.66906475c.27614237 0 .5.22385762.5.5 0 .24545989-.17687516.44960837-.41012437.49194433l-.08987563.00805567h-1.6506295c-.20788506 0-.37419474.13384755-.41252395.30366576l-.00833936.07469616v12.51665743c0 .1780981.14032404.3342079.33456705.3704526l.08629626.0079093h16.57553959c.207885 0 .3741947-.1338475.4125239-.3036657l.0083394-.0746962v-12.51665743c0-.17809805-.1403241-.33420786-.3345671-.37045253l-.0862962-.00790939h-1.647482c-.2761424 0-.5-.22385763-.5-.5 0-.24545989.1768751-.44960837.4101243-.49194433l.0898757-.00805567h1.647482c.7337172 0 1.3449391.54184373 1.4143087 1.24476877l.0065546.13359315v12.51665743c0 .7215729-.568062 1.3058621-1.2848292 1.3721052l-.1360341.0062567h-16.57553959c-.73371727 0-1.34493908-.5418437-1.41430872-1.2447687l-.00655459-.1335932v-12.51665743c0-.72157285.56806197-1.30586204 1.2848292-1.37210515l.13603411-.00625677zm2.03282374 8.86330935c.78472113 0 1.42086331.6361422 1.42086331 1.4208633s-.63614218 1.4208633-1.42086331 1.4208633c-.78472114 0-1.42086331-.6361422-1.42086331-1.4208633s.63614217-1.4208633 1.42086331-1.4208633zm9.20863305 0c.7847212 0 1.4208633.6361422 1.4208633 1.4208633s-.6361421 1.4208633-1.4208633 1.4208633c-.7847211 0-1.4208633-.6361422-1.4208633-1.4208633s.6361422-1.4208633 1.4208633-1.4208633zm-4.60431651 0c.78472111 0 1.42086331.6361422 1.42086331 1.4208633s-.6361422 1.4208633-1.42086331 1.4208633c-.78472113 0-1.42086331-.6361422-1.42086331-1.4208633s.63614218-1.4208633 1.42086331-1.4208633zm-4.60431654 1c-.23243639 0-.42086331.1884269-.42086331.4208633s.18842692.4208633.42086331.4208633c.23243638 0 .42086331-.1884269.42086331-.4208633s-.18842693-.4208633-.42086331-.4208633zm9.20863305 0c-.2324363 0-.4208633.1884269-.4208633.4208633s.188427.4208633.4208633.4208633c.2324364 0 .4208633-.1884269.4208633-.4208633s-.1884269-.4208633-.4208633-.4208633zm-4.60431651 0c-.23243638 0-.42086331.1884269-.42086331.4208633s.18842693.4208633.42086331.4208633c.23243639 0 .42086331-.1884269.42086331-.4208633s-.18842692-.4208633-.42086331-.4208633zm-4.60431654-5.14388489c.78472113 0 1.42086331.63614217 1.42086331 1.42086331s-.63614218 1.42086331-1.42086331 1.42086331c-.78472114 0-1.42086331-.63614217-1.42086331-1.42086331s.63614217-1.42086331 1.42086331-1.42086331zm9.20863305 0c.7847212 0 1.4208633.63614217 1.4208633 1.42086331s-.6361421 1.42086331-1.4208633 1.42086331c-.7847211 0-1.4208633-.63614217-1.4208633-1.42086331s.6361422-1.42086331 1.4208633-1.42086331zm-4.60431651 0c.78472111 0 1.42086331.63614217 1.42086331 1.42086331s-.6361422 1.42086331-1.42086331 1.42086331c-.78472113 0-1.42086331-.63614217-1.42086331-1.42086331s.63614218-1.42086331 1.42086331-1.42086331zm-4.60431654 1c-.23243639 0-.42086331.18842692-.42086331.42086331s.18842692.42086331.42086331.42086331c.23243638 0 .42086331-.18842692.42086331-.42086331s-.18842693-.42086331-.42086331-.42086331zm9.20863305 0c-.2324363 0-.4208633.18842692-.4208633.42086331s.188427.42086331.4208633.42086331c.2324364 0 .4208633-.18842692.4208633-.42086331s-.1884269-.42086331-.4208633-.42086331zm-4.60431651 0c-.23243638 0-.42086331.18842692-.42086331.42086331s.18842693.42086331.42086331.42086331c.23243639 0 .42086331-.18842692.42086331-.42086331s-.18842692-.42086331-.42086331-.42086331zm4.60431651-7.33093525c.2454599 0 .4496084.17687516.4919444.41012436l.0080556.08987564v3.45323741c0 .27614237-.2238576.5-.5.5-.2454598 0-.4496083-.17687516-.4919443-.41012437l-.0080557-.08987563v-3.45323741c0-.27614238.2238577-.5.5-.5zm-9.20863305-.05755396c.24545989 0 .44960837.17687516.49194433.41012437l.00805567.08987563v3.45323741c0 .27614237-.22385763.5-.5.5-.24545989 0-.44960837-.17687516-.49194433-.41012437l-.00805567-.08987563v-3.45323741c0-.27614237.22385762-.5.5-.5zm7.05755395 1.61151079c.2761424 0 .5.22385763.5.5 0 .24545989-.1768752.44960837-.4101244.49194433l-.0898756.00805567h-4.90647482c-.27614237 0-.5-.22385762-.5-.5 0-.24545989.17687516-.44960837.41012437-.49194433l.08987563-.00805567z" fill="#56707a" transform="translate(2.5 3.5)"/></svg>