<svg height="24" viewBox="0 0 24 24" width="24" xmlns="http://www.w3.org/2000/svg"><path d="m13.3982382 0c.6798329 0 1.2389914.5179494 1.3062306 1.18168336l.006779.13458032v.7070716l.7873995-.00259194 1.7921027-.01290939.7693727.01659183c2.3582293.11821014 3.5276461 1.31660948 3.8407579 3.26454838.0645723.40171864.08927.74251712.0965835 1.25127304l.0025359.48254724v5.22915816c0 .6815204-.5169421 1.2420624-1.1790549 1.309468l-.1342494.0067957-.6446957-.0002163-.0001555.0262748c-.049066 1.3367964-1.1683127 2.4057252-2.5418445 2.4057252-1.3823924 0-2.5072084-1.0827646-2.5426602-2.4316294l-6.72909825-.0001543c-.28867642 0-.5226949-.2345985-.5226949-.5239903 0-.2572372.18490348-.4711809.42873983-.5155482l.09395507-.0084422 6.93273705-.0002148c.3886814-.8906376 1.2896381-1.5145731 2.3390214-1.5145731 1.0509599 0 1.9530469.6258117 2.3407697 1.5185891l.0454494-.0038012h.8004766c.1267545 0 .2329791-.0883046.2607421-.2067928l.0070749-.0614902v-5.115028l-.0021364-.563082-.0122108-.42181812c-.0124393-.25464048-.0343928-.46634208-.0713613-.69633096-.2288057-1.42345156-.9618384-2.22419222-2.6370091-2.36937791l-.2238795-.01521686-.2239398-.00910511-3.0708647.00800636.0003659 7.533468c0 .2713049-.2061189.4944515-.4702531.521285l-.0535564.0027054c-.2712113 0-.4942809-.2061901-.5211052-.4704154l-.0027044-.053575v-9.28720432c0-.12700169-.0880291-.23339211-.206257-.2611975l-.0613627-.00708555h-9.45084638c-1.8556607 0-2.81673717 1.14615481-2.89668666 2.72512516l-.00531538.18406908v8.29477773c0 .1270017.08802916.2333921.20625703.2611975l.06136276.0070855h.53785304c.03623124 0 .07160149.0036955.10575615.010731.38573419-.8965112 1.2897411-1.5255189 2.34338126-1.5255189 1.4047484 0 2.54352197 1.1180686 2.54352197 2.4972761 0 1.3792076-1.13877357 2.4972762-2.54352197 2.4972762-1.38239241 0-2.50720839-1.0827646-2.54266027-2.4316294l-.44433018-.0001543c-.67983296 0-1.23899144-.5179494-1.30623065-1.1816834l-.00677892-.1345803v-8.29874724c.01612538-2.13184067 1.29285923-3.8398116 3.70264149-3.94778491l.24475033-.00542045zm4.1017618 12.244176c-.7079486 0-1.2818543.563471-1.2818543 1.2585478 0 .6950769.5739057 1.258548 1.2818543 1.258548s1.2818543-.5634711 1.2818543-1.258548c0-.6950768-.5739057-1.2585478-1.2818543-1.2585478zm-13.19999998 0c-.70794862 0-1.28185436.563471-1.28185436 1.2585478 0 .6950769.57390574 1.258548 1.28185436 1.258548.70794859 0 1.28185432-.5634711 1.28185432-1.258548 0-.6950768-.57390573-1.2585478-1.28185432-1.2585478z" fill="#56707a" transform="translate(1 5)"/></svg>