<?xml version="1.0" encoding="UTF-8"?>
<svg width="32px" height="32px" viewBox="0 0 32 32" version="1.1" xmlns="http://www.w3.org/2000/svg" xmlns:xlink="http://www.w3.org/1999/xlink">
    <title>icon/service/close copy</title>
    <g id="Icon-List" stroke="none" stroke-width="1" fill="none" fill-rule="evenodd">
        <g id="Icons" transform="translate(-326.000000, -1692.000000)" fill="#56707A" fill-rule="nonzero">
            <g id="icon/service/close-copy" transform="translate(326.000000, 1692.000000)">
                <g id="+-circle-copy-2" transform="translate(16.000000, 16.000000) rotate(-45.000000) translate(-16.000000, -16.000000) translate(4.625465, 4.747118)">
                    <path d="M11.1284327,-7.42839443e-16 C11.4569024,-7.42839443e-16 11.7300899,0.236690903 11.7867431,0.548820465 L11.797523,0.669090288 L11.7973999,10.6920628 L22.0799795,10.6928598 C22.4495079,10.6928598 22.7490698,10.9924218 22.7490698,11.3619501 C22.7490698,11.6904198 22.5123788,11.9636073 22.2002493,12.0202605 L22.0799795,12.0310404 L11.7973999,12.0302434 L11.797523,21.8366739 C11.797523,22.2062023 11.4979611,22.5057642 11.1284327,22.5057642 C10.7999631,22.5057642 10.5267755,22.2690733 10.4701224,21.9569437 L10.4593424,21.8366739 L10.4592194,12.0302434 L0.669090288,12.0310404 C0.299561925,12.0310404 0,11.7314785 0,11.3619501 C0,11.0334805 0.236690905,10.7602929 0.548820463,10.7036398 L0.669090288,10.6928598 L10.4592194,10.6920628 L10.4593424,0.669090288 C10.4593424,0.299561925 10.7589044,-7.42839443e-16 11.1284327,-7.42839443e-16 Z" id="Path"></path>
                </g>
            </g>
        </g>
    </g>
</svg>