<svg height="24" viewBox="0 0 24 24" width="24" xmlns="http://www.w3.org/2000/svg"><path d="m20.6299433 0c.7289248 0 1.319835.56431209 1.319835 1.26042632l.0012702.29653819c.0314085.06422332.0489515.13587148.0489515.2114326 0 .16722346-.0171745.33061609-.0499306.4886558l-.0002911 12.48252079c0 .6961142-.5909102 1.2604263-1.319835 1.2604263h-19.26959129c-.72892475 0-1.31983502-.5643121-1.31983502-1.2604263l-.00063657-12.30366247c-.02621033-.14154531-.03988042-.28720423-.03988042-.43591123h.04l.00051699-.73957368c0-.69611423.59091027-1.26042632 1.31983502-1.26042632zm-7.5687369 3.26423435-.0405799.05270235c-.4827969.580504-1.230902.95289586-2.0701203.95289586-.8600803 0-1.62446106-.39113638-2.10563099-.99657098-.4673809.6047932-1.21173108.99657098-2.05184934.99657098-.78788603 0-1.49154209-.34457658-1.96241888-.88639776-.47174873.6739628-1.27914035 1.11753709-2.19506143 1.11753709-.57812819 0-1.11301695-.17672522-1.54771769-.4764686l.00030817 10.71507041c0 .1435735.12187524.2599629.27221597.2599629h19.26959129c.1503407 0 .272216-.1163894.272216-.2599629l.0006735-10.93477826c-.4289292.29304453-.9543163.46550068-1.5218804.46550068-.8583647 0-1.6202597-.39445045-2.0979194-1.00393238-.4786958.60930793-1.2456555 1.00346882-2.1090547 1.00346882-.8643475 0-1.6320436-.39502718-2.1127719-1.00559821zm3.4248431 3.15861088c.7109601 0 1.3157106.49866423 1.3157106 1.1532162v6.53144557c0 .2762703-.2345175.5002316-.5238095.5002316-.2892921 0-.5238096-.2239613-.5238096-.5002316v-6.53144557c0-.0667148-.1043418-.15275281-.2680915-.15275281h-10.98180371c-.16374967 0-.26809149.08603801-.26809149.15275281v6.53144557c0 .2762703-.23451751.5002316-.52380952.5002316s-.52380952-.2239613-.52380952-.5002316v-6.53144557c0-.65455197.6047505-1.1532162 1.31571053-1.1532162zm.7996648-5.15467982c.289292 0 .5238095.22396136.5238095.5002317 0 .82926142.7035959 1.50143562 1.5714286 1.50143562.7325374 0 1.3480555-.47892725 1.5221699-1.12699551l-.000963-.8824109c0-.14357356-.1218753-.25996293-.272216-.25996293h-19.26959129c-.15034073 0-.27221597.11638937-.27221597.25996293l-.00148177 1.07162991c.15985039.66839388.79196448 1.16845227 1.54889129 1.16845227.8779141 0 1.58792651-.67269315 1.58792651-1.5005085l.01088841.00051577c-.00720604-.07629113-.01088841-.15356197-.01088841-.2316551 0-.27627033.23451751-.50023169.52380952-.50023169s.52380952.22396136.52380952.50023169c0 .83133883.68422179 1.5005085 1.52193476 1.5005085s1.52193476-.66916967 1.52193476-1.5005085c0-.27627033.23451751-.50023169.52380952-.50023169l.09415543.0080594c.24435631.04235558.4296541.24659866.4296541.49217229 0 .82781536.71001242 1.5005085 1.58792652 1.5005085s1.5879265-.67269314 1.5879265-1.5005085c0-.27627033.2345175-.50023169.5238095-.50023169l.0941554.0080594c.2443564.04235558.4296541.24659866.4296541.49217229 0 .82781536.7100124 1.5005085 1.5879266 1.5005085.8779141 0 1.5879265-.67269314 1.5879265-1.5005085 0-.06139341.0115811-.12020365.0327708-.17454704.0741641-.19066542.2660338-.32614822.4910387-.32614822z" fill="#56707a" transform="translate(1 5)"/></svg>