<svg height="24" viewBox="0 0 24 24" width="24" xmlns="http://www.w3.org/2000/svg"><path d="m10.7666667 0c2.0291405 0 3.7272813 1.40601996 4.1384158 3.28497668l2.0271857-1.10893453c.6330188-.34629703 1.4541656-.168342 1.8530737.41716368.1117535.1640286.1820826.34976306.2057441.54299595l.008914.14610863v6.43549169c0 .7211119-.6261584 1.2821979-1.372914 1.2821979-.2283989 0-.4528681-.053061-.6531018-.1540093l-.1453138-.0846093-2.6060269-1.73740941c-.164888-.10992902-.243418-.30084752-.2180036-.48481661l-.0046399-.06552257v-4.30696614c0-1.68662834-1.3476374-3.06836042-3.0496627-3.16164678l-.1836706-.00501989h-6.53333337c-1.72607173 0-3.13322888 1.32357248-3.2282218 2.98716799l-.00511153.17949868v3.66666666c0 1.68662834 1.34763744 3.06836037 3.04966266 3.16164677l.18367067.0050199h6.53333337c.2761423 0 .5.2238576.5.5 0 .2454599-.1768752.4496084-.4101244.4919443l-.0898756.0080557h-6.53333337c-2.26522082 0-4.11794114-1.7522187-4.22814713-3.95853388l-.0051862-.20813279v-3.66666666c0-2.23342847 1.78407726-4.05332686 4.02221797-4.16157283l.21111536-.00509384zm6.7193143 3.02170492-.0737779.03164135-2.4122031 1.31865373v3.968l2.3833834 1.58933965c.0676646.04511123.1537526.07066035.2437026.07066035.1902588 0 .333077-.10666524.3658087-.22905001l.0071053-.05314789v-6.43549169c0-.04250278-.0135225-.08560509-.0410827-.12605718-.0905676-.13293246-.2958021-.19157305-.4729363-.13454831z" fill="#56707a" transform="translate(2.5 6.5)"/></svg>